<svg xmlns="http://www.w3.org/2000/svg" width="381" height="98"><g><path d="M93.305 30.32C83.094 5.621 54.867-6.117 30.25 4.102 5.637 14.32-6.043 42.629 4.164 67.328c10.207 24.695 38.438 36.434 63.05 26.215 24.618-10.219 36.298-38.523 26.09-63.223zm0 0"/><path d="M66.066 6.906C42.988-2.676 16.523 8.328 6.953 31.484c-9.566 23.153 1.383 49.692 24.457 59.27 23.078 9.582 49.543-1.422 59.113-24.578 9.57-23.153-1.382-49.692-24.457-59.27zm0 0"/><path d="M88.844 42.262c0-22.235-17.953-40.258-40.106-40.258-22.148 0-40.101 18.023-40.101 40.258 0 22.234 17.953 40.261 40.101 40.261 22.153 0 40.106-18.027 40.106-40.261zm0 0" fill="#dde460"/><path d="M48.73 83.582c-22.992 0-41.628-18.71-41.628-41.793C7.102 18.711 25.738 0 48.73 0c22.993 0 41.633 18.71 41.633 41.79 0 23.081-18.64 41.792-41.633 41.792zm0-80.488c-15.617 0-29.695 9.449-35.667 23.933-5.97 14.489-2.657 31.16 8.394 42.239 11.05 11.078 27.66 14.379 42.086 8.363 14.422-6.012 23.812-20.16 23.789-35.84C87.32 20.395 70.047 3.047 48.73 3.023zm0 0"/><path d="M75.309 60.7c0-18.458-14.907-33.419-33.293-33.419-18.383 0-33.29 14.961-33.29 33.418 0 18.453 14.907 33.418 33.29 33.418 18.386 0 33.293-14.965 33.293-33.418zm0 0" fill="#a7dcda"/><path d="M42.086 95.64a35.102 35.102 0 0 1-7.363-.773C15.933 90.82 3.969 72.25 7.996 53.387c4.027-18.864 22.524-30.88 41.316-26.836C68.106 30.59 80.075 49.156 76.055 68.02 72.62 84.086 58.5 95.582 42.133 95.64zm-.078-66.85c-16.688.003-30.531 12.956-31.703 29.667-1.172 16.711 10.73 31.484 27.25 33.836 16.523 2.348 32.043-8.527 35.539-24.91a32.005 32.005 0 0 0-6.367-26.742 31.732 31.732 0 0 0-24.72-11.852zm0 0"/><path d="M91.75 62.105c0-11.449-9.246-20.73-20.652-20.73-11.407 0-20.653 9.281-20.653 20.73 0 11.454 9.246 20.735 20.653 20.735 11.406 0 20.652-9.281 20.652-20.735zm0 0" fill="#f6df3f"/><path d="M71.098 84.355c-12.243 0-22.164-9.96-22.164-22.25 0-12.289 9.921-22.25 22.164-22.25 12.242 0 22.164 9.961 22.164 22.25-.012 12.286-9.93 22.239-22.164 22.25zm0-41.464c-7.746-.004-14.735 4.68-17.7 11.863a19.282 19.282 0 0 0 4.149 20.953 19.101 19.101 0 0 0 20.875 4.168c7.156-2.98 11.82-9.992 11.816-17.77-.011-10.605-8.574-19.203-19.14-19.214zm0 0M131.48 51.118h-7.294l-2.964 14.078h-8.328l8.097-38.028h15.683c6.383 0 10.744 4.477 10.744 9.632 0 10.212-8.127 14.318-15.938 14.318zm1.026-18.362h-4.445l-2.733 12.781h2.848c5.588 0 10.752-1.265 10.752-7.934 0-3.025-3.172-4.847-6.422-4.847zM173.96 55.046a53.85 53.85 0 0 0-1.365 10.15h-8.043c.116-1.42.633-4.106 1.088-6.723-2.053 3.705-5.402 7.356-11.006 7.356-5.757 0-8.667-3.86-8.667-9.123 0-12.836 11.461-20.762 22.383-20.762 3.31 0 7.587.57 9.578 1.312zm-7.123-13.8c-6.56 0-12.542 6.946-12.542 14.603 0 2.562.91 4.677 3.859 4.677 3.99 0 7.81-5.48 9.408-12.349l1.544-6.614a6.383 6.383 0 0 0-2.27-.317zM204.47 61.375c-2.562 11.523-6.784 16.764-19.441 16.764a31.884 31.884 0 0 1-9.926-1.59l1.544-5.65a17.119 17.119 0 0 0 8.212 1.938c7.124 0 9.864-3.759 11.176-9.123l.91-3.759c-2.74 3.65-5.587 5.24-10.319 5.24-5.873 0-8.729-3.642-8.729-8.49 0-12.889 11.747-20.7 22.7-20.7 3.128.014 6.241.434 9.261 1.25zm-5.587-20.067c-6.56 0-12.658 6.73-12.658 14.71 0 2.563.91 4.446 3.705 4.446 5.364 0 8.328-6.838 9.524-11.916l1.652-6.87a7.656 7.656 0 0 0-2.223-.37zM237.945 34.122a18.238 18.238 0 0 0-7.873-1.883c-3.473 0-8.667 1.598-8.667 5.534 0 5.526 15.058 4.677 15.058 15.166 0 8.328-7.873 12.89-17.505 12.89a34.16 34.16 0 0 1-11.122-1.66l1.999-6.174a19.296 19.296 0 0 0 9.362 2.13c4.052-.054 8.552-1.883 8.552-6.105 0-5.982-14.935-5.357-14.935-14.997 0-9.06 9.061-12.426 17.752-12.426a26.243 26.243 0 0 1 9.355 1.706zM246.983 53.109a8.49 8.49 0 0 0-.402 2.678c0 3.86 2.964 5.403 6.445 5.403a16.98 16.98 0 0 0 8.776-2.624l-.278 5.078a24.652 24.652 0 0 1-10.898 2.223c-6.213 0-12.087-2.686-12.087-9.694 0-11.353 8.613-20.129 18.763-20.129 4.63 0 9.864 1.652 9.864 6.9.03 8.969-13.029 10.165-20.183 10.165zm9.632-12.488c-4.33 0-7.471 4.507-8.891 8.212 5.132 0 12.31-.91 12.31-5.403.07-2.122-1.474-2.81-3.388-2.81zM293.485 61.375c-2.57 11.523-6.784 16.764-19.45 16.764a31.868 31.868 0 0 1-9.918-1.59l1.544-5.65a17.158 17.158 0 0 0 8.212 1.938c7.132 0 9.864-3.759 11.176-9.123l.918-3.759c-2.74 3.65-5.588 5.24-10.327 5.24-5.873 0-8.721-3.642-8.721-8.49 0-12.889 11.747-20.7 22.691-20.7 3.129.013 6.242.434 9.262 1.25zm-5.588-20.067c-6.56 0-12.658 6.73-12.658 14.71 0 2.563.91 4.446 3.705 4.446 5.356 0 8.32-6.838 9.524-11.916l1.652-6.87a7.656 7.656 0 0 0-2.23-.37zM325.076 58.759a64.409 64.409 0 0 0-1.089 6.437h-7.355l.772-5.125c-2.455 3.357-5.48 5.758-10.212 5.758s-7.864-2.316-7.864-7.07a15.853 15.853 0 0 1 .285-3.257l4.044-18.987h7.873l-3.573 17.28c-.257.97-.41 1.963-.456 2.965 0 2.169 1.027 3.766 3.767 3.766 4.276 0 6.267-3.936 7.07-7.587l3.511-16.424h7.865zM350.793 43.415a6.514 6.514 0 0 0-2.316-.401c-5.194 0-8.096 5.024-9.069 9.586l-2.678 12.596h-7.934l4.731-22.236c.489-2.09.87-4.202 1.142-6.33h7.41l-1.08 5.874c1.767-3.535 5.248-6.56 9.354-6.56a7.718 7.718 0 0 1 2.277.285zM362.308 65.829c-6.329 0-12.148-3.481-12.148-10.381 0-11.06 7.131-19.443 18.477-19.443 6.329 0 12.087 3.366 12.087 10.32 0 10.944-7.24 19.504-18.416 19.504zm4.963-24.521c-5.874 0-8.837 8.32-8.837 13.283 0 3.42 1.312 5.935 5.016 5.935 5.758 0 9.07-8.382 9.07-13.29 0-3.42-1.544-5.928-5.249-5.928z"/></g></svg>